<svg width="24" height="25" viewBox="0 0 24 25" fill="none" xmlns="http://www.w3.org/2000/svg">
    <path fill-rule="evenodd" clip-rule="evenodd" d="M4.04152 9.92528L4.57025 10.3659C4.78496 10.5448 5.20902 10.8335 5.74389 11.0758C6.27939 11.3183 6.89458 11.5 7.50008 11.5C8.11687 11.5 9.05434 11.6672 9.9289 12.1656C10.6221 12.5607 11.2801 13.1677 11.6964 14.0592C11.7738 13.9659 11.854 13.8755 11.9366 13.788C13.0501 12.6088 14.5779 11.9835 15.6481 11.7605L15.6713 11.7557L15.6949 11.7531C17.3872 11.565 18.9242 10.7255 19.4595 10.3431L19.9002 10.0283L20.1789 10.4928C20.5336 11.0839 20.6903 11.8141 20.7539 12.4503C20.8182 13.0935 20.7923 13.6935 20.7462 14.062L20.7453 14.0696L20.7441 14.0772C20.2229 17.4129 18.6632 19.3435 16.873 20.3655C15.1071 21.3736 13.1715 21.4671 11.9122 21.2422L11.3947 21.1498L11.5129 20.6376C11.8427 19.2086 12.7685 17.9415 13.7446 16.9546C14.7257 15.9628 15.801 15.2102 16.505 14.8142C16.7457 14.6788 17.0505 14.7642 17.1859 15.0049C17.3213 15.2456 17.2359 15.5504 16.9952 15.6858C16.3658 16.0398 15.3662 16.7372 14.4556 17.6579C13.6809 18.441 13.0015 19.3547 12.6471 20.3267C13.698 20.4034 15.0953 20.2288 16.3772 19.497C17.8774 18.6406 19.2749 16.9899 19.7549 13.9306C19.7916 13.6312 19.8149 13.1102 19.7588 12.5498C19.7213 12.1744 19.6503 11.8036 19.5366 11.4776C18.7219 11.9497 17.3437 12.571 15.8298 12.7442C14.9013 12.942 13.5926 13.4908 12.6636 14.4745C11.7537 15.4381 11.1801 16.843 11.7325 18.8684L11.8684 19.3668L11.3659 19.4864C10.4222 19.7111 8.9299 19.8049 7.47272 19.3594C5.99649 18.9082 4.54987 17.8982 3.785 15.9334C3.4228 15.0262 2.92303 12.7215 3.78591 10.5643L4.04152 9.92528ZM11.0139 15.1168C10.7516 14.073 10.1242 13.4279 9.43375 13.0344C8.72915 12.6328 7.96662 12.5 7.50008 12.5C6.70557 12.5 5.94579 12.265 5.33132 11.9867C5.02593 11.8484 4.74869 11.6959 4.51201 11.5482C4.07152 13.2074 4.44349 14.8871 4.71439 15.5643L4.71617 15.5688C5.35153 17.2025 6.52934 18.0254 7.76505 18.4031C8.79018 18.7165 9.85026 18.7197 10.6436 18.6058C10.3693 17.2243 10.5563 16.0656 11.0139 15.1168Z" fill="#37A49D"/>
    <path fill-rule="evenodd" clip-rule="evenodd" d="M6.33408 14.2227C6.48726 13.9929 6.79769 13.9308 7.02746 14.084C7.67217 14.5138 8.65864 15.2568 9.53987 16.1016C9.98077 16.5242 10.4034 16.98 10.745 17.4416C11.0829 17.8982 11.3626 18.3884 11.4852 18.8787C11.5522 19.1466 11.3893 19.4181 11.1214 19.4851C10.8535 19.5521 10.582 19.3892 10.515 19.1213C10.4376 18.8116 10.2423 18.4434 9.94116 18.0365C9.64373 17.6346 9.26319 17.2216 8.84785 16.8234C8.01658 16.0266 7.07804 15.3196 6.47276 14.916C6.24299 14.7629 6.18091 14.4524 6.33408 14.2227Z" fill="#37A49D"/>
    <path fill-rule="evenodd" clip-rule="evenodd" d="M13.9598 3.7126C14.7287 3.72758 15.4028 4.052 15.8001 4.35001L15.8152 4.36131L15.8294 4.37372C16.7491 5.17851 17.0582 6.14255 17.0055 7.02361C16.9543 7.87978 16.5631 8.64413 16.1037 9.10356C16.1037 9.10357 16.1037 9.10355 16.1037 9.10356L12.0001 13.2071L7.89655 9.10356C7.09284 8.29985 6.85257 7.42687 6.91419 6.65402C6.97389 5.90532 7.31309 5.28323 7.62048 4.92461L7.63297 4.91003L7.64655 4.89645C8.64542 3.8976 9.66078 3.63637 10.5482 3.80228C11.1331 3.91161 11.6225 4.19903 11.9838 4.51258C12.6002 3.91626 13.3009 3.69976 13.9598 3.7126ZM13.9404 4.71241C13.4573 4.703 12.9023 4.88038 12.4001 5.55001L12.0073 6.07371L11.6054 5.55698C11.3683 5.25212 10.9173 4.8886 10.3645 4.78525C9.85085 4.68923 9.16307 4.80108 8.368 5.58928C8.17766 5.81746 7.95052 6.23826 7.91103 6.7335C7.87265 7.21482 8.00738 7.80017 8.60366 8.39645L12.0001 11.7929L15.3966 8.39645C15.6872 8.10588 15.971 7.57021 16.0073 6.9639C16.0418 6.38664 15.8538 5.73099 15.1854 5.13914C14.9137 4.94 14.4456 4.72226 13.9404 4.71241Z" fill="#37A49D"/>
</svg>
