<svg width="24" height="25" viewBox="0 0 24 25" fill="none" xmlns="http://www.w3.org/2000/svg">
    <path fill-rule="evenodd" clip-rule="evenodd" d="M9.6375 5.87676H14.8099C15.223 5.85906 15.6309 5.97502 15.9731 6.20768C16.3202 6.44371 16.5805 6.78685 16.7142 7.18471L16.715 7.18699L17.5717 9.76838H19.0664C19.5762 9.76838 20.0652 9.97089 20.4256 10.3314C20.7861 10.6919 20.9886 11.1808 20.9886 11.6906V14.285C20.9886 14.7948 20.7861 15.2837 20.4256 15.6442C20.0652 16.0047 19.5762 16.2072 19.0664 16.2072C18.7213 16.2072 18.4414 15.9274 18.4414 15.5822C18.4414 15.237 18.7213 14.9572 19.0664 14.9572C19.2447 14.9572 19.4157 14.8864 19.5418 14.7603C19.6678 14.6342 19.7386 14.4633 19.7386 14.285V11.6906C19.7386 11.5123 19.6678 11.3413 19.5418 11.2153C19.4157 11.0892 19.2447 11.0184 19.0664 11.0184H17.1206C16.8513 11.0184 16.6123 10.8459 16.5275 10.5903L15.5294 7.58301C15.5293 7.58275 15.5292 7.58248 15.5291 7.58221C15.4822 7.44342 15.3913 7.32372 15.2702 7.24134C15.1488 7.1588 15.0038 7.11826 14.8572 7.12591C14.8463 7.12648 14.8355 7.12676 14.8246 7.12676H9.6228C9.61194 7.12676 9.60107 7.12648 9.59022 7.12591C9.44364 7.11826 9.29858 7.1588 9.1772 7.24134C9.0575 7.32273 8.96732 7.44055 8.91999 7.57723L7.98853 10.5786C7.90737 10.8401 7.66543 11.0184 7.39161 11.0184H4.7972C4.61892 11.0184 4.44795 11.0892 4.32188 11.2153C4.19582 11.3413 4.125 11.5123 4.125 11.6906V14.285C4.125 14.4633 4.19582 14.6342 4.32188 14.7603C4.44795 14.8864 4.61892 14.9572 4.7972 14.9572C5.14238 14.9572 5.4222 15.237 5.4222 15.5822C5.4222 15.9274 5.14238 16.2072 4.7972 16.2072C4.2874 16.2072 3.79848 16.0047 3.438 15.6442C3.07752 15.2837 2.875 14.7948 2.875 14.285V11.6906C2.875 11.1808 3.07752 10.6919 3.438 10.3314C3.79848 9.97089 4.2874 9.76838 4.7972 9.76838H6.93117L7.72868 7.19861C7.73013 7.19396 7.73162 7.18933 7.73318 7.18471C7.86692 6.78685 8.12722 6.44371 8.47431 6.20768C8.81647 5.97502 9.22443 5.85906 9.6375 5.87676Z" fill="#37A49D"/>
    <path fill-rule="evenodd" clip-rule="evenodd" d="M7.39161 13.6128C6.30394 13.6128 5.4222 14.4945 5.4222 15.5822C5.4222 16.6699 6.30394 17.5516 7.39161 17.5516C8.47928 17.5516 9.36102 16.6698 9.36102 15.5822C9.36102 14.4945 8.47928 13.6128 7.39161 13.6128ZM4.1722 15.5822C4.1722 13.8041 5.61358 12.3628 7.39161 12.3628C9.16964 12.3628 10.611 13.8041 10.611 15.5822C10.611 17.3602 9.16964 18.8016 7.39161 18.8016C5.61358 18.8016 4.1722 17.3602 4.1722 15.5822Z" fill="#37A49D"/>
    <path fill-rule="evenodd" clip-rule="evenodd" d="M16.472 13.6128C15.3844 13.6128 14.5026 14.4945 14.5026 15.5822C14.5026 16.6698 15.3844 17.5516 16.472 17.5516C17.5597 17.5516 18.4414 16.6699 18.4414 15.5822C18.4414 14.4945 17.5597 13.6128 16.472 13.6128ZM13.2526 15.5822C13.2526 13.8041 14.694 12.3628 16.472 12.3628C18.2501 12.3628 19.6915 13.8041 19.6915 15.5822C19.6915 17.3602 18.2501 18.8016 16.472 18.8016C14.694 18.8016 13.2526 17.3602 13.2526 15.5822Z" fill="#37A49D"/>
    <path fill-rule="evenodd" clip-rule="evenodd" d="M9.36102 15.5822C9.36102 15.237 9.64083 14.9571 9.98601 14.9571H13.8776C14.2228 14.9571 14.5026 15.237 14.5026 15.5822C14.5026 15.9273 14.2228 16.2071 13.8776 16.2071H9.98601C9.64083 16.2071 9.36102 15.9273 9.36102 15.5822Z" fill="#37A49D"/>
</svg>
