<svg width="24" height="25" viewBox="0 0 24 25" fill="none" xmlns="http://www.w3.org/2000/svg">
    <path fill-rule="evenodd" clip-rule="evenodd" d="M10.75 8.44492C11.0952 8.44492 11.375 8.72474 11.375 9.06992V11C11.375 11.3452 11.0952 11.625 10.75 11.625C10.4048 11.625 10.125 11.3452 10.125 11V9.06992C10.125 8.72474 10.4048 8.44492 10.75 8.44492Z" fill="#37A49D"/>
    <path fill-rule="evenodd" clip-rule="evenodd" d="M13.25 8.44492C13.5952 8.44492 13.875 8.72474 13.875 9.06992V11C13.875 11.3452 13.5952 11.625 13.25 11.625C12.9048 11.625 12.625 11.3452 12.625 11V9.06992C12.625 8.72474 12.9048 8.44492 13.25 8.44492Z" fill="#37A49D"/>
    <path fill-rule="evenodd" clip-rule="evenodd" d="M12 5.625C8.19497 5.625 5.125 8.66553 5.125 12.3983C5.125 15.4657 7.19691 18.0653 10.049 18.8952C10.3552 18.966 10.778 19.0081 11.0925 18.9484C11.2497 18.9186 11.3226 18.874 11.3482 18.8506L11.3496 18.8495C11.3564 18.8439 11.375 18.8288 11.375 18.75V15.5C11.375 15.1548 11.6548 14.875 12 14.875C12.3452 14.875 12.625 15.1548 12.625 15.5V18.75C12.625 19.1651 12.4708 19.5187 12.1904 19.7744C11.9304 20.0114 11.6077 20.123 11.3254 20.1766C10.766 20.2826 10.1423 20.202 9.74647 20.1081L9.73182 20.1047L9.71735 20.1005C6.34669 19.1279 3.875 16.0527 3.875 12.3983C3.875 7.95914 7.52076 4.375 12 4.375C16.4792 4.375 20.125 7.95914 20.125 12.3983C20.125 15.4243 18.4291 18.0543 15.9339 19.4201C15.6311 19.5858 15.2513 19.4747 15.0855 19.1719C14.9198 18.8691 15.0309 18.4893 15.3337 18.3236C17.4499 17.1652 18.875 14.9433 18.875 12.3983C18.875 8.66553 15.805 5.625 12 5.625Z" fill="#37A49D"/>
    <path fill-rule="evenodd" clip-rule="evenodd" d="M8.875 11.75C8.875 11.1287 9.37868 10.625 10 10.625H14C14.6213 10.625 15.125 11.1287 15.125 11.75V12.2551C15.125 12.2788 15.125 12.3028 15.125 12.3271C15.1256 12.947 15.1263 13.7539 14.7705 14.4742C14.5785 14.8627 14.2796 15.2809 13.8168 15.6014C13.3485 15.9258 12.7482 16.125 12 16.125H11.9688L11.9378 16.1219C11.4448 16.0726 10.714 15.8851 10.0875 15.4615C9.44117 15.0246 8.875 14.308 8.875 13.25V11.75ZM10.125 11.875V13.25C10.125 13.792 10.3922 14.1587 10.7875 14.426C11.1905 14.6984 11.6914 14.8359 12.0317 14.8748C12.5299 14.8695 12.868 14.738 13.1051 14.5738C13.3527 14.4023 13.527 14.1692 13.6498 13.9206C13.8668 13.4813 13.875 12.9515 13.875 12.2551V11.875H10.125Z" fill="#37A49D"/>
</svg>
