<svg width="24" height="25" viewBox="0 0 24 25" fill="none" xmlns="http://www.w3.org/2000/svg">
    <path fill-rule="evenodd" clip-rule="evenodd" d="M10.2508 4.56914C10.4168 4.46999 10.6066 4.41763 10.7999 4.41763C10.98 4.41763 11.157 4.46306 11.3146 4.54943C15.8985 6.67988 18.4993 11.1046 18.3386 14.8128C18.27 16.3724 17.7114 17.8186 16.6261 18.8762C15.5409 19.9337 13.9843 20.5494 12.0199 20.5535C11.2287 20.6021 10.4356 20.4933 9.68654 20.2333C8.93106 19.9711 8.23566 19.5604 7.64126 19.0255C7.04686 18.4905 6.56546 17.8421 6.22541 17.1183C5.88535 16.3945 5.6935 15.61 5.66114 14.811L5.66083 14.8017C5.63719 13.8756 5.86768 12.9608 6.32728 12.1564C6.78689 11.3521 7.45804 10.6891 8.26788 10.2393C8.42151 10.154 8.60397 10.1373 8.77054 10.1933C8.93711 10.2493 9.07241 10.3729 9.14327 10.5337C9.41186 11.1432 9.78484 11.6993 10.2439 12.1775C10.7768 11.4564 11.0238 10.5323 11.0164 9.51458C11.0073 8.27489 10.6176 6.94506 9.96459 5.81213C9.85076 5.6219 9.80919 5.3969 9.84776 5.17835C9.88698 4.95611 10.0063 4.75597 10.1832 4.61583C10.2047 4.5988 10.2273 4.58321 10.2508 4.56914ZM11.4777 6.03128C11.9687 7.12787 12.2577 8.33566 12.2663 9.5054C12.2772 10.9888 11.8342 12.4597 10.7167 13.524C10.4861 13.7436 10.1273 13.7547 9.88354 13.5499C9.26074 13.0265 8.73641 12.3989 8.33291 11.6969C7.96291 11.995 7.65022 12.3608 7.41259 12.7766C7.06705 13.3813 6.89338 14.0689 6.91031 14.7651C6.93648 15.396 7.08825 16.0153 7.35676 16.5867C7.62593 17.1596 8.00697 17.6729 8.47747 18.0964C8.94796 18.5198 9.4984 18.8449 10.0964 19.0524C10.6944 19.26 11.3278 19.3458 11.9595 19.3049C11.973 19.304 11.9864 19.3036 11.9999 19.3036C13.7061 19.3036 14.9369 18.7769 15.7537 17.981C16.5741 17.1814 17.0327 16.0558 17.0898 14.7584M11.4777 6.03128C15.2213 8.07661 17.2179 11.7982 17.0898 14.7584L11.4777 6.03128Z" fill="#37A49D"/>
    <path fill-rule="evenodd" clip-rule="evenodd" d="M14.8571 14.1607C15.2022 14.1607 15.4821 14.4405 15.4821 14.7857C15.4821 15.5577 15.1754 16.298 14.6295 16.8439C14.0837 17.3898 13.3433 17.6964 12.5713 17.6964C12.2262 17.6964 11.9463 17.4166 11.9463 17.0714C11.9463 16.7262 12.2262 16.4464 12.5713 16.4464C13.0118 16.4464 13.4342 16.2715 13.7457 15.96C14.0571 15.6486 14.2321 15.2262 14.2321 14.7857C14.2321 14.4405 14.5119 14.1607 14.8571 14.1607Z" fill="#37A49D"/>
</svg>
