<svg width="24" height="25" viewBox="0 0 24 25" fill="none" xmlns="http://www.w3.org/2000/svg">
    <path fill-rule="evenodd" clip-rule="evenodd" d="M8.73228 5.08852C9.62647 4.30645 10.7682 3.875 11.9508 3.875C13.1333 3.875 14.2751 4.30645 15.1693 5.08852C15.9322 5.75582 16.4718 6.6404 16.7235 7.61984C17.719 7.7176 18.6539 8.16412 19.3644 8.88753C20.1728 9.71054 20.625 10.8244 20.625 11.9836C20.625 13.1427 20.1728 14.2566 19.3644 15.0796C18.5564 15.9023 17.4584 16.3668 16.3109 16.3677C15.9255 16.3713 15.5425 16.3191 15.1733 16.2136C14.824 16.5981 14.4085 16.9173 13.9456 17.1546C13.3426 17.4637 12.6762 17.625 12 17.625C11.3238 17.625 10.6574 17.4637 10.0544 17.1546C9.59147 16.9173 9.17601 16.5981 8.82671 16.2136C8.45748 16.3191 8.07449 16.3713 7.68909 16.3677C6.54158 16.3668 5.44357 15.9023 4.63557 15.0796C3.82719 14.2566 3.375 13.1427 3.375 11.9836C3.375 10.8244 3.82719 9.71054 4.63557 8.88753C5.32197 8.18871 6.21766 7.74828 7.1752 7.63102C7.42568 6.64713 7.96641 5.75836 8.73228 5.08852ZM11.9508 5.125C11.0735 5.125 10.2235 5.44493 9.5552 6.02942C8.88664 6.61415 8.44398 7.42535 8.31041 8.31706C8.26458 8.62307 8.00173 8.84948 7.69231 8.84948C6.88246 8.84948 6.10347 9.1769 5.52734 9.76346C4.95083 10.3504 4.625 11.1488 4.625 11.9836C4.625 12.8184 4.95083 13.6168 5.52734 14.2037C6.10347 14.7903 6.88246 15.1177 7.69231 15.1177H7.69863C8.07328 15.1215 8.44513 15.0486 8.79222 14.9031C9.05941 14.7911 9.36856 14.8774 9.5391 15.1117C9.82539 15.5048 10.1974 15.8232 10.6246 16.0423C11.0518 16.2612 11.5228 16.375 12 16.375C12.4772 16.375 12.9482 16.2612 13.3754 16.0423C13.8026 15.8232 14.1746 15.5048 14.4609 15.1117C14.6314 14.8774 14.9406 14.7911 15.2078 14.9031C15.5549 15.0486 15.9267 15.1215 16.3014 15.1177L16.3077 15.1177C17.1175 15.1177 17.8965 14.7903 18.4727 14.2037C19.0492 13.6168 19.375 12.8184 19.375 11.9836C19.375 11.1488 19.0492 10.3504 18.4727 9.76346C17.8965 9.1769 17.1175 8.84948 16.3077 8.84948H16.2092C15.8998 8.84948 15.637 8.62307 15.5911 8.31706C15.4576 7.42535 15.0149 6.61416 14.3463 6.02942C13.678 5.44493 12.8281 5.125 11.9508 5.125Z" fill="#37A49D"/>
    <path fill-rule="evenodd" clip-rule="evenodd" d="M9.53791 11.5792C9.77033 11.324 10.1656 11.3055 10.4208 11.5379L12.4208 13.3593C12.5509 13.4778 12.625 13.6455 12.625 13.8214V20.5C12.625 20.8452 12.3452 21.125 12 21.125C11.6548 21.125 11.375 20.8452 11.375 20.5V14.0976L9.57917 12.4621C9.32396 12.2297 9.30549 11.8344 9.53791 11.5792Z" fill="#37A49D"/>
    <path fill-rule="evenodd" clip-rule="evenodd" d="M14.5 11.625C14.7071 11.9011 14.6511 12.2929 14.375 12.5L12.375 14C12.0989 14.2071 11.7071 14.1511 11.5 13.875C11.2929 13.5989 11.3489 13.2071 11.625 13L13.625 11.5C13.9011 11.2929 14.2929 11.3489 14.5 11.625Z" fill="#37A49D"/>
</svg>
