<svg width="24" height="25" viewBox="0 0 24 25" fill="none" xmlns="http://www.w3.org/2000/svg">
    <path fill-rule="evenodd" clip-rule="evenodd" d="M12.4968 3.62074L12 4L11.5032 3.62074C11.6215 3.46587 11.8052 3.375 12 3.375C12.1948 3.375 12.3785 3.46587 12.4968 3.62074ZM12 5.04823C11.8753 5.21894 11.7309 5.41842 11.5711 5.6421C11.0131 6.42353 10.2701 7.49759 9.52823 8.6707C8.78497 9.84596 8.04999 11.1093 7.50296 12.2712C6.94439 13.4575 6.625 14.4505 6.625 15.1154C6.625 16.5064 7.18828 17.8429 8.19499 18.8302C9.20211 19.818 10.5706 20.375 12 20.375C13.4294 20.375 14.7979 19.818 15.805 18.8302C16.8117 17.8429 17.375 16.5064 17.375 15.1154C17.375 14.4505 17.0556 13.4575 16.497 12.2712C15.95 11.1093 15.215 9.84596 14.4718 8.6707C13.7299 7.49759 12.9869 6.42353 12.4289 5.6421C12.2691 5.41842 12.1247 5.21894 12 5.04823ZM12 4C11.5032 3.62074 11.5032 3.62074 11.5032 3.62074L11.4983 3.62724L11.4848 3.64498C11.473 3.6605 11.4558 3.68333 11.4333 3.71309C11.3885 3.77261 11.3231 3.85986 11.2401 3.9718C11.0742 4.19566 10.8376 4.51841 10.5539 4.91566C9.98692 5.70959 9.22987 6.80385 8.47177 8.00257C7.71503 9.19914 6.95001 10.5111 6.37204 11.7387C5.80561 12.9417 5.375 14.1522 5.375 15.1154C5.375 16.8458 6.076 18.5028 7.31973 19.7226C8.56305 20.9421 10.2468 21.625 12 21.625C13.7532 21.625 15.437 20.9421 16.6803 19.7226C17.924 18.5028 18.625 16.8458 18.625 15.1154C18.625 14.1522 18.1944 12.9417 17.628 11.7387C17.05 10.5111 16.285 9.19914 15.5282 8.00257C14.7701 6.80385 14.0131 5.70959 13.4461 4.91566C13.1624 4.51841 12.9258 4.19566 12.7599 3.9718C12.6769 3.85986 12.6115 3.77261 12.5667 3.71309C12.5442 3.68333 12.527 3.6605 12.5152 3.64498L12.5017 3.62724L12.4972 3.6213C12.4972 3.6213 12.4968 3.62074 12 4Z" fill="#37A49D"/>
</svg>
