<svg width="57" height="64" viewBox="0 0 57 64" fill="none"
    xmlns="http://www.w3.org/2000/svg">
    <path d="M47.1087 63.5866H10.2561C4.93058 63.5866 0.612061 59.1992 0.612061 53.7889V23.117C0.612061 20.1266 1.94828 17.3132 4.25278 15.4441L19.0674 3.48231C24.819 -1.16077 32.8363 -1.16077 38.5685 3.48231L54.7194 16.5262C57.0239 18.3756 57.7404 21.7398 56.1331 24.2384C54.2934 27.1109 50.4977 27.6814 47.9221 25.5959L31.5776 12.3947C29.9509 11.0962 27.6657 11.0962 26.039 12.3947L15.175 21.189C13.0641 22.9006 11.8441 25.4779 11.8441 28.2126V48.9687C11.8441 50.7394 13.2578 52.1756 15.0007 52.1756H44.049C44.8623 52.1756 45.5208 51.5067 45.5208 50.6804V43.0075C45.5208 42.1812 44.8623 41.5123 44.049 41.5123H28.053C25.1288 41.5123 22.4951 39.3284 22.224 36.3773C21.9142 32.9737 24.5285 30.121 27.8013 30.121H47.0894C52.4149 30.121 56.7334 34.5083 56.7334 39.9187V53.7889C56.7528 59.1992 52.4343 63.5866 47.1087 63.5866Z" fill="#37A49D"/>
</svg>
